<svg width="33" height="32" viewBox="0 0 33 32" fill="none" xmlns="http://www.w3.org/2000/svg">
<path d="M12.6667 30.0002C13.4031 30.0002 14 29.4032 14 28.6668C14 27.9304 13.4031 27.3335 12.6667 27.3335C11.9303 27.3335 11.3334 27.9304 11.3334 28.6668C11.3334 29.4032 11.9303 30.0002 12.6667 30.0002Z" fill="#5B5B5B" stroke="#5B5B5B" stroke-width="3" stroke-linecap="round" stroke-linejoin="round"/>
<path d="M27.3332 30.0002C28.0696 30.0002 28.6665 29.4032 28.6665 28.6668C28.6665 27.9304 28.0696 27.3335 27.3332 27.3335C26.5968 27.3335 25.9999 27.9304 25.9999 28.6668C25.9999 29.4032 26.5968 30.0002 27.3332 30.0002Z" fill="#5B5B5B" stroke="#5B5B5B" stroke-width="3" stroke-linecap="round" stroke-linejoin="round"/>
<path d="M2 2H7.33333L10.9067 19.8533C11.0286 20.4672 11.3625 21.0186 11.8501 21.4111C12.3376 21.8035 12.9476 22.012 13.5733 22H26.5333C27.1591 22.012 27.7691 21.8035 28.2566 21.4111C28.7441 21.0186 29.0781 20.4672 29.2 19.8533L31.3333 8.66667H8.66667" stroke="#5B5B5B" stroke-width="3" stroke-linecap="round" stroke-linejoin="round"/>
</svg>
