<svg width="62" height="62" viewBox="0 0 62 62" fill="none" xmlns="http://www.w3.org/2000/svg">
<rect width="62" height="62" rx="31" fill="#D9D9D9"/>
<rect width="62" height="62" rx="31" fill="#26A9E0"/>
<path d="M26 41.0001C26.5523 41.0001 27 40.5523 27 40.0001C27 39.4478 26.5523 39.0001 26 39.0001C25.4477 39.0001 25 39.4478 25 40.0001C25 40.5523 25.4477 41.0001 26 41.0001Z" fill="white" stroke="white" stroke-width="3" stroke-linecap="round" stroke-linejoin="round"/>
<path d="M37 41.0001C37.5523 41.0001 38 40.5523 38 40.0001C38 39.4478 37.5523 39.0001 37 39.0001C36.4477 39.0001 36 39.4478 36 40.0001C36 40.5523 36.4477 41.0001 37 41.0001Z" fill="white" stroke="white" stroke-width="3" stroke-linecap="round" stroke-linejoin="round"/>
<path d="M18 20H22L24.68 33.39C24.7714 33.8504 25.0219 34.264 25.3875 34.5583C25.7532 34.8526 26.2107 35.009 26.68 35H36.4C36.8693 35.009 37.3268 34.8526 37.6925 34.5583C38.0581 34.264 38.3086 33.8504 38.4 33.39L40 25H23" stroke="white" stroke-width="3" stroke-linecap="round" stroke-linejoin="round"/>
</svg>
