<svg width="26" height="28" viewBox="0 0 26 28" fill="none" xmlns="http://www.w3.org/2000/svg">
<path d="M2 6.79999H4.4H23.6" stroke="#9C9C9C" stroke-width="3" stroke-linecap="round" stroke-linejoin="round"/>
<path d="M21.2 6.8L20.1171 23.6C20.1171 24.2365 19.8642 24.847 19.4141 25.2971C18.9641 25.7471 18.3536 26 17.7171 26H7.8829C7.24638 26 6.63593 25.7471 6.18585 25.2971C5.73576 24.847 5.4829 24.2365 5.4829 23.6L4.39999 6.8M7.99999 6.8V4.4C7.99999 3.76348 8.25285 3.15303 8.70294 2.70294C9.15303 2.25286 9.76347 2 10.4 2H15.2C15.8365 2 16.447 2.25286 16.897 2.70294C17.3471 3.15303 17.6 3.76348 17.6 4.4V6.8" stroke="#9C9C9C" stroke-width="3" stroke-linecap="round" stroke-linejoin="round"/>
</svg>
