<svg width="208" height="37" viewBox="0 0 208 37" fill="none" xmlns="http://www.w3.org/2000/svg">
<path d="M19.0777 36.6C16.3777 36.6 13.8611 36.1667 11.5277 35.3C9.22774 34.4 7.22773 33.1333 5.52773 31.5C3.82773 29.8667 2.4944 27.95 1.52773 25.75C0.594401 23.55 0.127734 21.1333 0.127734 18.5C0.127734 15.8667 0.594401 13.45 1.52773 11.25C2.4944 9.05 3.82773 7.13333 5.52773 5.5C7.26107 3.86667 9.27774 2.61666 11.5777 1.75C13.8777 0.849999 16.3944 0.399999 19.1277 0.399999C22.1611 0.399999 24.8944 0.933333 27.3277 2C29.7944 3.03333 31.8611 4.56667 33.5277 6.6L28.3277 11.4C27.1277 10.0333 25.7944 9.01666 24.3277 8.35C22.8611 7.65 21.2611 7.3 19.5277 7.3C17.8944 7.3 16.3944 7.56667 15.0277 8.1C13.6611 8.63333 12.4777 9.4 11.4777 10.4C10.4777 11.4 9.6944 12.5833 9.12773 13.95C8.5944 15.3167 8.32773 16.8333 8.32773 18.5C8.32773 20.1667 8.5944 21.6833 9.12773 23.05C9.6944 24.4167 10.4777 25.6 11.4777 26.6C12.4777 27.6 13.6611 28.3667 15.0277 28.9C16.3944 29.4333 17.8944 29.7 19.5277 29.7C21.2611 29.7 22.8611 29.3667 24.3277 28.7C25.7944 28 27.1277 26.95 28.3277 25.55L33.5277 30.35C31.8611 32.3833 29.7944 33.9333 27.3277 35C24.8944 36.0667 22.1444 36.6 19.0777 36.6ZM55.2652 36.6C52.4986 36.6 49.9319 36.15 47.5652 35.25C45.2319 34.35 43.1986 33.0833 41.4652 31.45C39.7652 29.8167 38.4319 27.9 37.4652 25.7C36.5319 23.5 36.0652 21.1 36.0652 18.5C36.0652 15.9 36.5319 13.5 37.4652 11.3C38.4319 9.1 39.7819 7.18333 41.5152 5.55C43.2486 3.91666 45.2819 2.65 47.6152 1.75C49.9486 0.849999 52.4819 0.399999 55.2152 0.399999C57.9819 0.399999 60.5152 0.849999 62.8152 1.75C65.1486 2.65 67.1652 3.91666 68.8652 5.55C70.5986 7.18333 71.9486 9.1 72.9152 11.3C73.8819 13.4667 74.3652 15.8667 74.3652 18.5C74.3652 21.1 73.8819 23.5167 72.9152 25.75C71.9486 27.95 70.5986 29.8667 68.8652 31.5C67.1652 33.1 65.1486 34.35 62.8152 35.25C60.5152 36.15 57.9986 36.6 55.2652 36.6ZM55.2152 29.7C56.7819 29.7 58.2152 29.4333 59.5152 28.9C60.8486 28.3667 62.0152 27.6 63.0152 26.6C64.0152 25.6 64.7819 24.4167 65.3152 23.05C65.8819 21.6833 66.1652 20.1667 66.1652 18.5C66.1652 16.8333 65.8819 15.3167 65.3152 13.95C64.7819 12.5833 64.0152 11.4 63.0152 10.4C62.0486 9.4 60.8986 8.63333 59.5652 8.1C58.2319 7.56667 56.7819 7.3 55.2152 7.3C53.6486 7.3 52.1986 7.56667 50.8652 8.1C49.5652 8.63333 48.4152 9.4 47.4152 10.4C46.4152 11.4 45.6319 12.5833 45.0652 13.95C44.5319 15.3167 44.2652 16.8333 44.2652 18.5C44.2652 20.1333 44.5319 21.65 45.0652 23.05C45.6319 24.4167 46.3986 25.6 47.3652 26.6C48.3652 27.6 49.5319 28.3667 50.8652 28.9C52.1986 29.4333 53.6486 29.7 55.2152 29.7ZM80.4527 36V0.999998H87.1527L102.053 25.7H98.5027L113.153 0.999998H119.803L119.903 36H112.303L112.253 12.65H113.653L101.953 32.3H98.3027L86.3527 12.65H88.0527V36H80.4527ZM128.207 36V0.999998H136.307V36H128.207ZM161.363 36.6C158.663 36.6 156.146 36.1667 153.813 35.3C151.513 34.4 149.513 33.1333 147.813 31.5C146.113 29.8667 144.78 27.95 143.813 25.75C142.88 23.55 142.413 21.1333 142.413 18.5C142.413 15.8667 142.88 13.45 143.813 11.25C144.78 9.05 146.113 7.13333 147.813 5.5C149.546 3.86667 151.563 2.61666 153.863 1.75C156.163 0.849999 158.68 0.399999 161.413 0.399999C164.446 0.399999 167.18 0.933333 169.613 2C172.08 3.03333 174.146 4.56667 175.813 6.6L170.613 11.4C169.413 10.0333 168.08 9.01666 166.613 8.35C165.146 7.65 163.546 7.3 161.813 7.3C160.18 7.3 158.68 7.56667 157.313 8.1C155.946 8.63333 154.763 9.4 153.763 10.4C152.763 11.4 151.98 12.5833 151.413 13.95C150.88 15.3167 150.613 16.8333 150.613 18.5C150.613 20.1667 150.88 21.6833 151.413 23.05C151.98 24.4167 152.763 25.6 153.763 26.6C154.763 27.6 155.946 28.3667 157.313 28.9C158.68 29.4333 160.18 29.7 161.813 29.7C163.546 29.7 165.146 29.3667 166.613 28.7C168.08 28 169.413 26.95 170.613 25.55L175.813 30.35C174.146 32.3833 172.08 33.9333 169.613 35C167.18 36.0667 164.43 36.6 161.363 36.6ZM192.588 36.6C189.788 36.6 187.104 36.2333 184.538 35.5C181.971 34.7333 179.904 33.75 178.338 32.55L181.088 26.45C182.588 27.5167 184.354 28.4 186.388 29.1C188.454 29.7667 190.538 30.1 192.638 30.1C194.238 30.1 195.521 29.95 196.488 29.65C197.488 29.3167 198.221 28.8667 198.688 28.3C199.154 27.7333 199.388 27.0833 199.388 26.35C199.388 25.4167 199.021 24.6833 198.288 24.15C197.554 23.5833 196.588 23.1333 195.388 22.8C194.188 22.4333 192.854 22.1 191.388 21.8C189.954 21.4667 188.504 21.0667 187.038 20.6C185.604 20.1333 184.288 19.5333 183.088 18.8C181.888 18.0667 180.904 17.1 180.138 15.9C179.404 14.7 179.038 13.1667 179.038 11.3C179.038 9.3 179.571 7.48333 180.638 5.85C181.738 4.18333 183.371 2.86666 185.538 1.9C187.738 0.899999 190.488 0.399999 193.788 0.399999C195.988 0.399999 198.154 0.666666 200.288 1.2C202.421 1.7 204.304 2.46666 205.938 3.5L203.438 9.65C201.804 8.71667 200.171 8.03333 198.538 7.6C196.904 7.13333 195.304 6.9 193.738 6.9C192.171 6.9 190.888 7.08333 189.888 7.45C188.888 7.81667 188.171 8.3 187.738 8.9C187.304 9.46666 187.088 10.1333 187.088 10.9C187.088 11.8 187.454 12.5333 188.188 13.1C188.921 13.6333 189.888 14.0667 191.088 14.4C192.288 14.7333 193.604 15.0667 195.038 15.4C196.504 15.7333 197.954 16.1167 199.388 16.55C200.854 16.9833 202.188 17.5667 203.388 18.3C204.588 19.0333 205.554 20 206.288 21.2C207.054 22.4 207.438 23.9167 207.438 25.75C207.438 27.7167 206.888 29.5167 205.788 31.15C204.688 32.7833 203.038 34.1 200.838 35.1C198.671 36.1 195.921 36.6 192.588 36.6Z" fill="#26A9E0"/>
</svg>
