<svg width="33" height="30" viewBox="0 0 33 30" fill="none" xmlns="http://www.w3.org/2000/svg">
<path d="M2.40735 24.1667C2.40735 22.3494 3.12924 20.6067 4.41421 19.3217C5.69918 18.0367 7.44198 17.3148 9.2592 17.3148H22.9629C24.7801 17.3148 26.5229 18.0367 27.8079 19.3217C29.0929 20.6067 29.8148 22.3494 29.8148 24.1667C29.8148 25.0753 29.4538 25.9467 28.8113 26.5892C28.1688 27.2317 27.2974 27.5926 26.3888 27.5926H5.83327C4.92466 27.5926 4.05326 27.2317 3.41078 26.5892C2.76829 25.9467 2.40735 25.0753 2.40735 24.1667Z" stroke="#5B5B5B" stroke-width="2.5" stroke-linejoin="round"/>
<path d="M16.1111 12.6852C18.9492 12.6852 21.2499 10.3844 21.2499 7.5463C21.2499 4.70817 18.9492 2.40741 16.1111 2.40741C13.2729 2.40741 10.9722 4.70817 10.9722 7.5463C10.9722 10.3844 13.2729 12.6852 16.1111 12.6852Z" stroke="#5B5B5B" stroke-width="2.5"/>
</svg>
