<svg width="18" height="10" viewBox="0 0 18 10" fill="none" xmlns="http://www.w3.org/2000/svg">
<path fill-rule="evenodd" clip-rule="evenodd" d="M9.61822 9.61822C9.3737 9.86267 9.0421 10 8.69634 10C8.35058 10 8.01898 9.86267 7.77446 9.61822L0.398077 2.24185C0.273538 2.12156 0.174201 1.97768 0.105863 1.81859C0.0375246 1.65951 0.00155374 1.4884 4.9232e-05 1.31527C-0.00145527 1.14213 0.0315369 0.970431 0.0971001 0.810182C0.162663 0.649933 0.259485 0.504345 0.381915 0.381914C0.504345 0.259484 0.649932 0.162663 0.810181 0.0970995C0.970431 0.0315363 1.14213 -0.00145527 1.31527 4.92329e-05C1.4884 0.00155374 1.65951 0.0375246 1.81859 0.105863C1.97768 0.174201 2.12156 0.273537 2.24185 0.398077L8.69634 6.85257L15.1508 0.398077C15.3968 0.160554 15.7261 0.0291241 16.068 0.0320951C16.4099 0.035066 16.737 0.1722 16.9787 0.41396C17.2205 0.655721 17.3576 0.982765 17.3606 1.32465C17.3636 1.66654 17.2321 1.99592 16.9946 2.24185L9.61822 9.61822Z" fill="#26A9E0"/>
</svg>
